<?xml version="1.0" encoding="UTF-8"?>
<svg id="Layer_2" data-name="Layer 2" xmlns="http://www.w3.org/2000/svg" viewBox="0 0 501.04 71.73">
  <defs>
    <style>
      .cls-1 {
        fill: #fff;
      }
    </style>
  </defs>
  <g id="Layer_1-2" data-name="Layer 1">
    <g>
      <g>
        <path class="cls-1" d="M259.11,3.59v3.51c0,1.66-1.34,3-3,3h-5.69c-1.66,0-3,1.34-3,3v55.03c0,1.66-1.34,3-3,3h-4.11c-1.66,0-3-1.34-3-3V13.11c0-1.66-1.34-3-3-3h-5.69c-1.66,0-3-1.34-3-3v-3.51c0-1.66,1.34-3,3-3h27.49c1.66,0,3,1.34,3,3Z"/>
        <g>
          <path class="cls-1" d="M35.02,67.47c-2.3-6.79-7.16-21.15-8.96-26.48-.4-1.18.06-2.45,1.07-3.18,5.02-3.62,6.95-9.1,6.95-16.51C34.08,6.94,27.44.6,16.45.6H0v67.76c0,1.54,1.24,2.78,2.77,2.78h4.56c1.53,0,2.78-1.24,2.78-2.78v-24.57c0-1.53,1.24-2.77,2.77-2.77h1.23c1.21,0,2.29.79,2.65,1.94l8.19,26.23c.36,1.16,1.44,1.95,2.65,1.95h4.79c1.9,0,3.24-1.87,2.63-3.67ZM23.88,23.98c-.3,6.44-3.27,8.12-8.33,8.12h-2.67c-1.53,0-2.77-1.24-2.77-2.77V12.88c0-1.53,1.24-2.77,2.77-2.77h2.38c7.92,0,8.72,4.46,8.72,10.7,0,1.09-.1,2.18-.1,3.17Z"/>
          <path class="cls-1" d="M75.5,54.89c0,9.71-7.53,16.84-16.94,16.84s-16.94-6.94-16.94-16.84V16.84C41.61,7.03,49.14,0,58.56,0s16.94,6.94,16.94,16.84v38.05ZM51.72,54.69c0,4.36,2.97,6.93,6.84,6.93s6.84-2.58,6.84-6.93V17.04c0-4.36-2.97-6.94-6.94-6.94-3.57,0-6.74,2.48-6.74,6.84v37.75Z"/>
          <path class="cls-1" d="M116.68,56.77c-.04,4.44-2.06,8.67-5.6,11.34-11.92,8.99-26.66-.09-26.66-12.63V3.37c0-1.53,1.24-2.77,2.77-2.77h4.56c1.53,0,2.77,1.24,2.77,2.77v51.12c0,4.46,2.58,7.13,6.24,7.13s6.24-2.67,6.24-7.13V3.37c0-1.53,1.24-2.77,2.77-2.77h4.56c1.53,0,2.77,1.24,2.77,2.77l-.43,53.4Z"/>
          <path class="cls-1" d="M133.99.59c1.17,0,2.22.74,2.61,1.84l14.6,40.67h.2V3.37c0-1.53,1.24-2.77,2.77-2.77h4.56c1.53,0,2.77,1.24,2.77,2.77v64.99c0,1.53-1.24,2.77-2.77,2.77h-4.79c-1.17,0-2.21-.73-2.61-1.82l-14.79-40.58h-.2v39.63c0,1.53-1.24,2.77-2.77,2.77h-4.56c-1.53,0-2.77-1.24-2.77-2.77V3.37c0-1.53,1.24-2.77,2.77-2.77h4.98Z"/>
          <path class="cls-1" d="M185.97.59c10.8,0,17.34,6.84,17.34,17.93v33.69c0,12.38-6.74,18.92-18.33,18.92h-11.59c-1.53,0-2.77-1.24-2.77-2.77V3.37c0-1.53,1.24-2.77,2.77-2.77h12.58ZM180.72,58.85c0,1.53,1.24,2.77,2.77,2.77h1.68c7.13,0,8.03-4.16,8.03-9.31V19.72c0-4.66-.3-9.61-8.03-9.61h-1.68c-1.53,0-2.77,1.24-2.77,2.77v45.97Z"/>
          <path class="cls-1" d="M280.59.59c11,0,17.64,6.34,17.64,20.71,0,7.41-1.93,12.89-6.95,16.51-1.01.73-1.47,2-1.07,3.18l8.96,26.48c.61,1.8-.73,3.66-2.63,3.66h-4.79c-1.21,0-2.29-.79-2.65-1.95l-8.2-26.23c-.36-1.16-1.43-1.95-2.65-1.95h-1.23c-1.53,0-2.77,1.24-2.77,2.77v24.57c0,1.53-1.24,2.77-2.77,2.77h-4.56c-1.53,0-2.77-1.24-2.77-2.77V3.37c0-1.53,1.24-2.77,2.77-2.77h13.67ZM274.25,29.33c0,1.53,1.24,2.77,2.77,2.77h2.67c5.05,0,8.03-1.68,8.32-8.12,0-.99.1-2.08.1-3.17,0-6.24-.79-10.7-8.72-10.7h-2.38c-1.53,0-2.77,1.24-2.77,2.77v16.45Z"/>
          <path class="cls-1" d="M326.45,2.76l14.51,64.99c.39,1.73-.93,3.38-2.71,3.38h-4.36c-1.33,0-2.47-.94-2.72-2.24l-2.09-10.68c-.26-1.3-1.4-2.24-2.72-2.24h-9.2c-1.33,0-2.47.94-2.72,2.24l-2.09,10.68c-.26,1.3-1.4,2.24-2.72,2.24h-4.36c-1.78,0-3.09-1.65-2.71-3.38l14.51-64.99c.28-1.27,1.41-2.17,2.71-2.17h3.97c1.3,0,2.42.9,2.71,2.17ZM320.02,46.47h3.38c1.74,0,3.06-1.59,2.72-3.3l-4.31-22.26h-.2l-4.31,22.26c-.33,1.71.98,3.3,2.72,3.3Z"/>
          <path class="cls-1" d="M371.45,20.81c-1.53,0-2.77-1.24-2.77-2.77h0c0-6.44-3.86-7.93-6.24-7.93-5.45,0-6.24,4.16-6.24,7.93v36.66c0,3.27,1.39,6.93,6.14,6.93,1.98,0,6.34-.79,6.34-7.43v-.4c0-1.53,1.24-2.77,2.77-2.77h4.56c1.53,0,2.77,1.24,2.77,2.77v1.29c0,9.31-7.23,16.64-16.05,16.64-10.4,0-16.64-6.34-16.64-16.25V16.05c0-8.82,6.54-16.05,16.45-16.05,5.05,0,9.02,2.08,11.69,4.85,2.77,2.97,4.56,6.44,4.56,12.88v.3c0,1.53-1.24,2.77-2.77,2.77h-4.56Z"/>
          <path class="cls-1" d="M394.34.59c1.53,0,2.77,1.24,2.77,2.77v29.43h.2l14.02-30.58c.45-.99,1.44-1.62,2.52-1.62h3.89c2.05,0,3.39,2.15,2.49,3.99l-11.29,23.16c-.34.69-.37,1.5-.09,2.22l14.45,37.4c.7,1.82-.64,3.77-2.59,3.77h-4.72c-1.16,0-2.2-.73-2.6-1.82l-8.69-23.68c-.83-2.25-3.92-2.46-5.05-.35l-2.2,4.13c-.21.4-.33.85-.33,1.31v17.63c0,1.53-1.24,2.77-2.77,2.77h-4.56c-1.53,0-2.77-1.24-2.77-2.77V3.37c0-1.53,1.24-2.77,2.77-2.77h4.56Z"/>
          <path class="cls-1" d="M482.32.59c11,0,17.64,6.34,17.64,20.71,0,7.41-1.93,12.89-6.95,16.51-1.01.73-1.47,2-1.07,3.18l8.96,26.48c.61,1.8-.73,3.66-2.63,3.66h-4.79c-1.21,0-2.29-.79-2.65-1.95l-8.2-26.23c-.36-1.16-1.43-1.95-2.65-1.95h-1.23c-1.53,0-2.77,1.24-2.77,2.77v24.57c0,1.53-1.24,2.77-2.77,2.77h-4.56c-1.53,0-2.77-1.24-2.77-2.77V3.37c0-1.53,1.24-2.77,2.77-2.77h13.67ZM475.98,29.33c0,1.53,1.24,2.77,2.77,2.77h2.67c5.05,0,8.03-1.68,8.32-8.12,0-.99.1-2.08.1-3.17,0-6.24-.79-10.7-8.72-10.7h-2.38c-1.53,0-2.77,1.24-2.77,2.77v16.45Z"/>
        </g>
      </g>
      <path class="cls-1" d="M459.33,3.59v3.51c0,1.66-1.34,3-3,3h-14.01c-1.66,0-3,1.34-3,3v14.71c0,1.66,1.34,3,3,3h11.44c1.66,0,3,1.34,3,3v3.51c0,1.66-1.34,3-3,3h-11.44c-1.66,0-3,1.34-3,3v14.71c0,1.66,1.34,3,3,3h14.01c1.66,0,3,1.34,3,3v4.11c0,1.66-1.34,3-3,3h-24.12c-1.66,0-3-1.34-3-3V3.59c0-1.66,1.34-3,3-3h24.12c1.66,0,3,1.34,3,3Z"/>
    </g>
  </g>
</svg>