<?xml version="1.0" encoding="UTF-8"?>
<svg id="Layer_2" data-name="Layer 2" xmlns="http://www.w3.org/2000/svg" xmlns:xlink="http://www.w3.org/1999/xlink" viewBox="0 0 611.81 78.38">
  <defs>
    <style>
      .cls-1 {
        fill: url(#linear-gradient);
      }

      .cls-2 {
        fill: none;
        stroke: #fff200;
        stroke-miterlimit: 10;
        stroke-width: 3px;
      }

      .cls-3 {
        fill: #00954d;
      }
    </style>
    <linearGradient id="linear-gradient" x1="1.5" y1="39.19" x2="82.63" y2="39.19" gradientUnits="userSpaceOnUse">
      <stop offset="0" stop-color="#fff382"/>
      <stop offset=".07" stop-color="#fef07d"/>
      <stop offset=".15" stop-color="#fdea70"/>
      <stop offset=".23" stop-color="#fcdf5a"/>
      <stop offset=".31" stop-color="#fbd23f"/>
      <stop offset=".32" stop-color="#fad344"/>
      <stop offset=".37" stop-color="#f9dc63"/>
      <stop offset=".42" stop-color="#f9e37c"/>
      <stop offset=".48" stop-color="#f8e98d"/>
      <stop offset=".53" stop-color="#f8ec97"/>
      <stop offset=".61" stop-color="#f8ed9b"/>
      <stop offset=".66" stop-color="#f8ed98"/>
      <stop offset=".7" stop-color="#f8ed90"/>
      <stop offset=".72" stop-color="#f9ed82"/>
      <stop offset=".75" stop-color="#f9ed6e"/>
      <stop offset=".77" stop-color="#fbee54"/>
      <stop offset=".78" stop-color="#fcef40"/>
      <stop offset=".86" stop-color="#fbdc40"/>
      <stop offset="1" stop-color="#fbb040"/>
    </linearGradient>
  </defs>
  <g id="Layer_1-2" data-name="Layer 1">
    <g>
      <g>
        <g>
          <path class="cls-3" d="M369.88,9.51v3.51c0,1.66-1.34,3-3,3h-5.69c-1.66,0-3,1.34-3,3v55.03c0,1.66-1.34,3-3,3h-4.11c-1.66,0-3-1.34-3-3V19.03c0-1.66-1.34-3-3-3h-5.69c-1.66,0-3-1.34-3-3v-3.51c0-1.66,1.34-3,3-3h27.49c1.66,0,3,1.34,3,3Z"/>
          <g>
            <path class="cls-3" d="M145.79,73.39c-2.3-6.79-7.16-21.15-8.96-26.48-.4-1.18.06-2.45,1.07-3.18,5.02-3.62,6.95-9.1,6.95-16.51,0-14.36-6.64-20.7-17.63-20.7h-16.45v67.76c0,1.54,1.24,2.78,2.77,2.78h4.56c1.53,0,2.78-1.24,2.78-2.78v-24.57c0-1.53,1.24-2.77,2.77-2.77h1.23c1.21,0,2.29.79,2.65,1.94l8.19,26.23c.36,1.16,1.44,1.95,2.65,1.95h4.79c1.9,0,3.24-1.87,2.63-3.67ZM134.65,29.9c-.3,6.44-3.27,8.12-8.33,8.12h-2.67c-1.53,0-2.77-1.24-2.77-2.77v-16.45c0-1.53,1.24-2.77,2.77-2.77h2.38c7.92,0,8.72,4.46,8.72,10.7,0,1.09-.1,2.18-.1,3.17Z"/>
            <path class="cls-3" d="M186.26,60.81c0,9.71-7.53,16.84-16.94,16.84s-16.94-6.94-16.94-16.84V22.76c0-9.81,7.53-16.84,16.94-16.84s16.94,6.94,16.94,16.84v38.05ZM162.48,60.61c0,4.36,2.97,6.93,6.84,6.93s6.84-2.58,6.84-6.93V22.96c0-4.36-2.97-6.94-6.94-6.94-3.57,0-6.74,2.48-6.74,6.84v37.75Z"/>
            <path class="cls-3" d="M227.44,62.69c-.04,4.44-2.06,8.67-5.6,11.34-11.92,8.99-26.66-.09-26.66-12.63V9.29c0-1.53,1.24-2.77,2.77-2.77h4.56c1.53,0,2.77,1.24,2.77,2.77v51.12c0,4.46,2.58,7.13,6.24,7.13s6.24-2.67,6.24-7.13V9.29c0-1.53,1.24-2.77,2.77-2.77h4.56c1.53,0,2.77,1.24,2.77,2.77l-.43,53.4Z"/>
            <path class="cls-3" d="M244.75,6.51c1.17,0,2.22.74,2.61,1.84l14.6,40.67h.2V9.29c0-1.53,1.24-2.77,2.77-2.77h4.56c1.53,0,2.77,1.24,2.77,2.77v64.99c0,1.53-1.24,2.77-2.77,2.77h-4.79c-1.17,0-2.21-.73-2.61-1.82l-14.79-40.58h-.2v39.63c0,1.53-1.24,2.77-2.77,2.77h-4.56c-1.53,0-2.77-1.24-2.77-2.77V9.29c0-1.53,1.24-2.77,2.77-2.77h4.98Z"/>
            <path class="cls-3" d="M296.74,6.51c10.8,0,17.34,6.84,17.34,17.93v33.69c0,12.38-6.74,18.92-18.33,18.92h-11.59c-1.53,0-2.77-1.24-2.77-2.77V9.29c0-1.53,1.24-2.77,2.77-2.77h12.58ZM291.49,64.77c0,1.53,1.24,2.77,2.77,2.77h1.68c7.13,0,8.03-4.16,8.03-9.31V25.64c0-4.66-.3-9.61-8.03-9.61h-1.68c-1.53,0-2.77,1.24-2.77,2.77v45.97Z"/>
            <path class="cls-3" d="M391.36,6.51c11,0,17.64,6.34,17.64,20.71,0,7.41-1.93,12.89-6.95,16.51-1.01.73-1.47,2-1.07,3.18l8.96,26.48c.61,1.8-.73,3.66-2.63,3.66h-4.79c-1.21,0-2.29-.79-2.65-1.95l-8.2-26.23c-.36-1.16-1.43-1.95-2.65-1.95h-1.23c-1.53,0-2.77,1.24-2.77,2.77v24.57c0,1.53-1.24,2.77-2.77,2.77h-4.56c-1.53,0-2.77-1.24-2.77-2.77V9.29c0-1.53,1.24-2.77,2.77-2.77h13.67ZM385.02,35.25c0,1.53,1.24,2.77,2.77,2.77h2.67c5.05,0,8.03-1.68,8.32-8.12,0-.99.1-2.08.1-3.17,0-6.24-.79-10.7-8.72-10.7h-2.38c-1.53,0-2.77,1.24-2.77,2.77v16.45Z"/>
            <path class="cls-3" d="M437.22,8.68l14.51,64.99c.39,1.73-.93,3.38-2.71,3.38h-4.36c-1.33,0-2.47-.94-2.72-2.24l-2.09-10.68c-.26-1.3-1.4-2.24-2.72-2.24h-9.2c-1.33,0-2.47.94-2.72,2.24l-2.09,10.68c-.26,1.3-1.4,2.24-2.72,2.24h-4.36c-1.78,0-3.09-1.65-2.71-3.38l14.51-64.99c.28-1.27,1.41-2.17,2.71-2.17h3.97c1.3,0,2.42.9,2.71,2.17ZM430.79,52.39h3.38c1.74,0,3.06-1.59,2.72-3.3l-4.31-22.26h-.2l-4.31,22.26c-.33,1.71.98,3.3,2.72,3.3Z"/>
            <path class="cls-3" d="M482.21,26.73c-1.53,0-2.77-1.24-2.77-2.77h0c0-6.44-3.86-7.93-6.24-7.93-5.45,0-6.24,4.16-6.24,7.93v36.66c0,3.27,1.39,6.93,6.14,6.93,1.98,0,6.34-.79,6.34-7.43v-.4c0-1.53,1.24-2.77,2.77-2.77h4.56c1.53,0,2.77,1.24,2.77,2.77v1.29c0,9.31-7.23,16.64-16.05,16.64-10.4,0-16.64-6.34-16.64-16.25V21.97c0-8.82,6.54-16.05,16.45-16.05,5.05,0,9.02,2.08,11.69,4.85,2.77,2.97,4.56,6.44,4.56,12.88v.3c0,1.53-1.24,2.77-2.77,2.77h-4.56Z"/>
            <path class="cls-3" d="M505.1,6.51c1.53,0,2.77,1.24,2.77,2.77v29.43h.2l14.02-30.58c.45-.99,1.44-1.62,2.52-1.62h3.89c2.05,0,3.39,2.15,2.49,3.99l-11.29,23.16c-.34.69-.37,1.5-.09,2.22l14.45,37.4c.7,1.82-.64,3.77-2.59,3.77h-4.72c-1.16,0-2.2-.73-2.6-1.82l-8.69-23.68c-.83-2.25-3.92-2.46-5.05-.35l-2.2,4.13c-.21.4-.33.85-.33,1.31v17.63c0,1.53-1.24,2.77-2.77,2.77h-4.56c-1.53,0-2.77-1.24-2.77-2.77V9.29c0-1.53,1.24-2.77,2.77-2.77h4.56Z"/>
            <path class="cls-3" d="M593.09,6.51c11,0,17.64,6.34,17.64,20.71,0,7.41-1.93,12.89-6.95,16.51-1.01.73-1.47,2-1.07,3.18l8.96,26.48c.61,1.8-.73,3.66-2.63,3.66h-4.79c-1.21,0-2.29-.79-2.65-1.95l-8.2-26.23c-.36-1.16-1.43-1.95-2.65-1.95h-1.23c-1.53,0-2.77,1.24-2.77,2.77v24.57c0,1.53-1.24,2.77-2.77,2.77h-4.56c-1.53,0-2.77-1.24-2.77-2.77V9.29c0-1.53,1.24-2.77,2.77-2.77h13.67ZM586.75,35.25c0,1.53,1.24,2.77,2.77,2.77h2.67c5.05,0,8.03-1.68,8.32-8.12,0-.99.1-2.08.1-3.17,0-6.24-.79-10.7-8.72-10.7h-2.38c-1.53,0-2.77,1.24-2.77,2.77v16.45Z"/>
          </g>
        </g>
        <path class="cls-3" d="M570.1,9.51v3.51c0,1.66-1.34,3-3,3h-14.01c-1.66,0-3,1.34-3,3v14.71c0,1.66,1.34,3,3,3h11.44c1.66,0,3,1.34,3,3v3.51c0,1.66-1.34,3-3,3h-11.44c-1.66,0-3,1.34-3,3v14.71c0,1.66,1.34,3,3,3h14.01c1.66,0,3,1.34,3,3v4.11c0,1.66-1.34,3-3,3h-24.12c-1.66,0-3-1.34-3-3V9.51c0-1.66,1.34-3,3-3h24.12c1.66,0,3,1.34,3,3Z"/>
      </g>
      <g>
        <path class="cls-1" d="M82.63,70.09c-27.04-23.49-54.09,23.49-81.13,0,0-20.6,0-41.21,0-61.81,27.04,23.49,54.09-23.49,81.13,0,0,20.6,0,41.21,0,61.81Z"/>
        <path class="cls-2" d="M82.63,70.09c-27.04-23.49-54.09,23.49-81.13,0,0-20.6,0-41.21,0-61.81,27.04,23.49,54.09-23.49,81.13,0,0,20.6,0,41.21,0,61.81Z"/>
      </g>
    </g>
  </g>
</svg>